# xmcd CD database file
#
# Track frame offsets:
#	150
#	18460
#	35764
#	50448
#	66874
#	87554
#	111841
#	128678
#	145067
#	167255
#	183885
#	200789
#
# Disc length: 2964 seconds
#
# Revision: 5
# Processed by: cddbd v1.5.2PL0 Copyright (c) Steve Scherf et al.
# Submitted via: CDex 1.90
#
DISCID=a60b920c
DTITLE=Kim Wilde - Here Come The Aliens (Deluxe Edition) (1 of 2)
DYEAR=2018
DGENRE=Pop
TTITLE0=1969
TTITLE1=Pop Don't Stop (Kim Wilde and Ricky Wilde)
TTITLE2=Kandy Krush
TTITLE3=Stereo Shot
TTITLE4=Yours 'Til The End
TTITLE5=Solstice
TTITLE6=Addicted To You
TTITLE7=Birthday
TTITLE8=Cyber.Nation.War
TTITLE9=Different Story
TTITLE10=Rock The Paradiso
TTITLE11=Rosetta (Kim Wilde and Frida Sundemo)
EXTD=YEAR: 2018
EXTT0=
EXTT1=
EXTT2=
EXTT3=
EXTT4=
EXTT5=
EXTT6=
EXTT7=
EXTT8=
EXTT9=
EXTT10=
EXTT11=
PLAYORDER=
